<?xml version="1.0" encoding="UTF-8" standalone="no"?>
<!-- Created with Inkscape (http://www.inkscape.org/) -->

<svg
   width="1000pt"
   height="1000pt"
   viewBox="0 0 352.77777 352.77777"
   version="1.1"
   id="svg1"
   sodipodi:docname="at.svg"
   inkscape:version="1.4 (e7c3feb100, 2024-10-09)"
   xmlns:inkscape="http://www.inkscape.org/namespaces/inkscape"
   xmlns:sodipodi="http://sodipodi.sourceforge.net/DTD/sodipodi-0.dtd"
   xmlns="http://www.w3.org/2000/svg"
   xmlns:svg="http://www.w3.org/2000/svg">
  <sodipodi:namedview
     id="namedview1"
     pagecolor="#ffffff"
     bordercolor="#eeeeee"
     borderopacity="1"
     inkscape:showpageshadow="0"
     inkscape:pageopacity="0"
     inkscape:pagecheckerboard="0"
     inkscape:deskcolor="#505050"
     inkscape:document-units="mm"
     showguides="true"
     inkscape:zoom="0.81423961"
     inkscape:cx="451.95541"
     inkscape:cy="831.45058"
     inkscape:window-width="3778"
     inkscape:window-height="2053"
     inkscape:window-x="30"
     inkscape:window-y="75"
     inkscape:window-maximized="1"
     inkscape:current-layer="g3"
     showgrid="false">
    <sodipodi:guide
       position="185.37579,282.66814"
       orientation="0,-1"
       id="guide2"
       inkscape:locked="false" />
    <sodipodi:guide
       position="-31.950149,29.760337"
       orientation="0,-1"
       id="guide3"
       inkscape:locked="false" />
    <sodipodi:guide
       position="352.778,70.556003"
       orientation="0,-1"
       id="guide4"
       inkscape:locked="false" />
    <sodipodi:guide
       position="166.73421,352.77776"
       orientation="0,-1"
       id="guide5"
       inkscape:locked="false" />
    <sodipodi:guide
       position="128.88723,154.63779"
       orientation="0,-1"
       id="guide6"
       inkscape:locked="false" />
    <sodipodi:guide
       position="115.95088,111.83953"
       orientation="0,-1"
       id="guide7"
       inkscape:locked="false" />
  </sodipodi:namedview>
  <defs
     id="defs1" />
  <g
     inkscape:groupmode="layer"
     id="layer4"
     inkscape:label="Layer 3">
    <g
       id="g1"
       transform="matrix(15.538807,0,0,15.538807,2219.6632,-2067.9886)">
      <g
         id="g3"
         transform="matrix(13.517285,0,0,13.517285,1677.1111,-1730.5436)"
         style="fill:#1a1a1a">
        <path
           id="rect3-7"
           style="fill:#1a1a1a;stroke-width:0.0181997"
           d="M -134.47194 137.87007 L -134.47194 138.04327 L -133.40831 138.04327 L -133.40831 137.87007 L -134.47194 137.87007 z M -134.63928 138.04465 L -134.63928 139.04081 L -134.47193 139.04081 L -134.47193 138.04465 L -134.63928 138.04465 z M -133.40829 138.04465 L -133.40829 138.75089 L -133.24094 138.75089 L -133.24094 138.04465 L -133.40829 138.04465 z M -134.12071 138.16579 L -134.12071 138.33557 L -134.28806 138.33557 L -134.28806 138.75089 L -134.12071 138.75089 L -134.12071 138.8698 L -133.78013 138.8698 L -133.78013 138.8698 L -133.61279 138.8698 L -133.61279 138.8698 L -133.4083 138.8698 L -133.4083 138.75089 L -133.61279 138.75089 L -133.61279 138.16579 L -133.69647 138.16579 L -133.78013 138.16579 L -134.12071 138.16579 z M -134.1207 138.33558 L -133.78013 138.33558 L -133.78013 138.75089 L -134.1207 138.75089 L -134.1207 138.33558 z M -134.47194 139.04082 L -134.47194 139.21371 L -133.4083 139.21371 L -133.4083 139.04082 L -134.47194 139.04082 z " />
      </g>
    </g>
  </g>
</svg>
